<svg xmlns="http://www.w3.org/2000/svg" aria-hidden="true" style="position:absolute;width:0;height:0;overflow:hidden">
  <defs>
    <symbol id="icon-twitter" viewBox="0 0 32 32">
      <path fill="none" stroke="#2f2f37" stroke-width=".8" d="M9.6.4h12.8a6 6 0 0 1 6 6v12.8a6 6 0 0 1-6 6H9.6a6 6 0 0 1-6-6V6.4a6 6 0 0 1 6-6z" style="stroke:var(--color1, #2f2f37)"/>
      <path d="M13.621 18.4c4.83 0 7.473-4.002 7.473-7.467 0-.112 0-.226-.005-.338A5.34 5.34 0 0 0 22.4 9.233a5.3 5.3 0 0 1-1.511.414 2.641 2.641 0 0 0 1.158-1.454 5.217 5.217 0 0 1-1.67.634 2.63 2.63 0 0 0-3.156-.519 2.624 2.624 0 0 0-1.32 2.914 7.46 7.46 0 0 1-5.413-2.743 2.632 2.632 0 0 0 .814 3.506 2.663 2.663 0 0 1-1.189-.326v.036a2.635 2.635 0 0 0 2.105 2.574 2.609 2.609 0 0 1-1.183.046 2.623 2.623 0 0 0 2.454 1.821 5.27 5.27 0 0 1-3.888 1.09 7.476 7.476 0 0 0 4.021 1.172z"/>
    </symbol>
    <symbol id="icon-github" viewBox="0 0 32 32">
      <path fill="none" stroke="#2f2f37" d="M8 .5h16A7.5 7.5 0 0 1 31.5 8v16a7.5 7.5 0 0 1-7.5 7.5H8A7.5 7.5 0 0 1 .5 24V8A7.5 7.5 0 0 1 8 .5z" style="stroke:var(--color1, #2f2f37)"/>
      <path d="M16 8c-4.42 0-8 3.58-8 8 0 3.54 2.29 6.53 5.47 7.59.4.07.55-.17.55-.38 0-.19-.01-.82-.01-1.49-2.01.37-2.53-.49-2.69-.94-.09-.23-.48-.94-.82-1.13-.28-.15-.68-.52-.01-.53.63-.01 1.08.58 1.23.82.72 1.21 1.87.87 2.33.66.07-.52.28-.87.51-1.07-1.78-.2-3.64-.89-3.64-3.95 0-.87.31-1.59.82-2.15-.08-.2-.36-1.02.08-2.12 0 0 .67-.21 2.2.82.64-.18 1.32-.27 2-.27s1.36.09 2 .27c1.53-1.04 2.2-.82 2.2-.82.44 1.1.16 1.92.08 2.12.51.56.82 1.27.82 2.15 0 3.07-1.87 3.75-3.65 3.95.29.25.54.73.54 1.48 0 1.07-.01 1.93-.01 2.2 0 .21.15.46.55.38A8.017 8.017 0 0 0 24 16c0-4.42-3.58-8-8-8z"/>
    </symbol>
    <symbol id="icon-tiktok" viewBox="0 0 32 32">
      <path fill="none" stroke="#2f2f37" d="M8 .5h16A7.5 7.5 0 0 1 31.5 8v16a7.5 7.5 0 0 1-7.5 7.5H8A7.5 7.5 0 0 1 .5 24V8A7.5 7.5 0 0 1 8 .5z" style="stroke:var(--color1, #2f2f37)"/>
      <path d="M18.667 13.497v4.837a4.336 4.336 0 0 1-2.911 4.092 4.335 4.335 0 0 1-4.821-1.406 4.33 4.33 0 0 1-.255-5.016 4.335 4.335 0 0 1 4.654-1.888v2.109a2.333 2.333 0 1 0 1.333 2.11v-9h2A3.333 3.333 0 0 0 22 12.668v2a5.309 5.309 0 0 1-3.333-1.17z"/>
    </symbol>
    <symbol id="icon-youtube" viewBox="0 0 32 32">
      <path fill="none" stroke="#2f2f37" d="M8 .5h16A7.5 7.5 0 0 1 31.5 8v16a7.5 7.5 0 0 1-7.5 7.5H8A7.5 7.5 0 0 1 .5 24V8A7.5 7.5 0 0 1 8 .5z" style="stroke:var(--color1, #2f2f37)"/>
      <path d="M16.163 10.667c.356.002 1.247.011 2.193.049l.336.015c.953.045 1.905.122 2.377.253.63.177 1.125.693 1.292 1.348.267 1.04.3 3.068.304 3.559l.001.101v.116c-.005.491-.038 2.52-.305 3.559a1.874 1.874 0 0 1-1.292 1.348c-.473.131-1.425.209-2.377.253l-.336.015c-.947.037-1.837.047-2.193.048l-.157.001h-.17c-.753-.005-3.904-.039-4.907-.317a1.874 1.874 0 0 1-1.292-1.348c-.267-1.04-.3-3.068-.304-3.559v-.217c.004-.491.037-2.52.304-3.559a1.87 1.87 0 0 1 1.293-1.347c1.002-.279 4.153-.313 4.907-.317h.326zm-1.497 3v4.667l4-2.333-4-2.333z"/>
    </symbol>
    <symbol id="icon-facebook" viewBox="0 0 32 32">
      <path fill="none" stroke="#2f2f37" d="M8 .5h16A7.5 7.5 0 0 1 31.5 8v16a7.5 7.5 0 0 1-7.5 7.5H8A7.5 7.5 0 0 1 .5 24V8A7.5 7.5 0 0 1 8 .5z" style="stroke:var(--color1, #2f2f37)"/>
      <path d="M18.665 10.657h1.461V8.113A18.755 18.755 0 0 0 17.998 8c-2.106 0-3.549 1.325-3.549 3.759V14h-2.324v2.844h2.324V24h2.849v-7.155h2.23l.354-2.844h-2.585v-1.959c.001-.822.222-1.385 1.367-1.385z"/>
    </symbol>
    <symbol id="icon-instagram" viewBox="0 0 32 32">
      <path fill="none" stroke="#2f2f37" d="M8 .5h16A7.5 7.5 0 0 1 31.5 8v16a7.5 7.5 0 0 1-7.5 7.5H8A7.5 7.5 0 0 1 .5 24V8A7.5 7.5 0 0 1 8 .5z" style="stroke:var(--color1, #2f2f37)"/>
      <path d="M16.685 9.334c.486-.002.973.003 1.459.015l.129.005c.149.005.297.012.475.02.709.033 1.193.145 1.618.31.44.169.811.399 1.181.769.339.333.601.736.769 1.181.165.425.277.909.31 1.619.008.177.015.325.02.475l.004.129c.012.486.017.972.015 1.459l.001.497v.873c.002.486-.003.973-.015 1.459l-.004.129c-.005.149-.012.297-.02.475-.033.709-.147 1.193-.311 1.618a3.251 3.251 0 0 1-.769 1.181 3.277 3.277 0 0 1-1.181.769c-.425.165-.909.277-1.618.31-.178.008-.325.015-.475.02l-.129.004c-.486.012-.973.017-1.459.015l-1.37.001c-.486.002-.973-.003-1.459-.015l-.129-.004c-.158-.006-.316-.012-.475-.02-.709-.033-1.193-.147-1.619-.311a3.264 3.264 0 0 1-1.181-.769 3.264 3.264 0 0 1-.769-1.181c-.165-.425-.277-.909-.31-1.618a75.409 75.409 0 0 1-.02-.475l-.003-.129a54.595 54.595 0 0 1-.017-1.459v-1.371c-.002-.486.003-.973.015-1.459l.005-.129c.005-.149.012-.297.02-.475.033-.71.145-1.193.31-1.619.168-.445.431-.848.771-1.18a3.276 3.276 0 0 1 1.18-.77c.425-.165.909-.277 1.619-.31l.475-.02.129-.003c.486-.012.972-.018 1.459-.017l1.371.001zM16 12.667a3.331 3.331 0 0 0-1.29 6.425c.41.165.848.246 1.29.24a3.333 3.333 0 1 0 0-6.666zm0 1.334A1.996 1.996 0 0 1 18.036 16a1.997 1.997 0 0 1-1.26 1.858A2.022 2.022 0 0 1 16 18a2 2 0 0 1 0-4l-.001.001zm3.5-2.334a.833.833 0 0 0 0 1.664.833.833 0 0 0 0-1.666v.001z"/>
    </symbol>
     <symbol id="icon-bi_caret-right-fill" viewBox="0 0 32 32">
      <path fill="#fff" d="m24.28 17.506-10.964 9.592C12.024 28.23 10 27.31 10 25.592V6.408a2 2 0 0 1 3.318-1.506l10.96 9.592a1.999 1.999 0 0 1 0 3.012h.002z" style="fill:var(--color1, #fff)"/>
    </symbol>
  </defs>
</svg>
